<svg xmlns="http://www.w3.org/2000/svg" viewBox="0 0 1200 1200">
    <path d="M556.1 11.3c335.7-25.5 609.8 229.1 632.7 545.8 23.7 326.4-222.1 607.5-545.6 631.8-320.6 24-603.5-217.2-631.3-535.1C-16.5 329.7 218.3 36.9 556.1 11.3ZM823 828.9l175.3-548.2-116.4-1.9-123.3 380.3C709.5 587 649.2 276.2 599.4 274.3c-54.1-2.1-109.8 305.8-162.3 385.8L314.9 281.3c-36.8-2.2-73.2-2.5-116.9-.8l176.4 549.6-61.8 156.4 122.2 1.9 53.8-134 218.9.2 50.6 131.8 122.1 2.4L823 829.1Z"/>
    <path d="m677.7 768.5-162 4.4c27-89.7 47.5-152.9 80.9-237.1l81.1 232.7Z"/>
</svg>
